<svg xmlns="http://www.w3.org/2000/svg" width="210" height="258" viewBox="0 0 210 258" fill="none">
    <path fill-rule="evenodd" clip-rule="evenodd"
          d="M0.623054 76.8892C0.50967 71.598 0.547465 61.1288 0.547465 61.1288C0.547465 61.1288 0.471875 50.0549 0.471875 47.825C0.396285 42.3448 0.320696 36.7133 0.698644 31.0819C1.41675 20.2348 5.30961 10.1814 15.0985 4.43654C28.5156 -3.46258 46.0146 1.1106 54.7075 13.5451C59.0539 19.819 59.394 26.5843 59.394 32.4803C59.3588 36.7033 59.2253 40.9591 59.0851 45.4307C59.0747 45.7615 59.0643 46.0934 59.0539 46.4266C59.0539 46.4266 58.2602 68.2342 59.4696 78.4766C60.1877 84.5238 61.2838 91.1757 63.816 96.6937C64.3073 97.7898 64.9121 98.848 65.8569 99.5283C66.8018 100.209 68.0868 100.435 69.1829 100.02C70.0521 99.7173 70.7702 98.9993 71.4127 98.3567L71.4128 98.3567C73.6047 96.1459 75.7872 93.9161 77.9697 91.6864C80.1525 89.4563 82.3353 87.2263 84.5276 85.0151C85.5102 83.9947 86.4929 83.012 87.4756 82.0293L97.6046 71.7869C100.075 69.2973 102.536 66.8077 104.993 64.3229C107.421 61.8662 109.845 59.4141 112.269 56.9714L112.271 56.9697C117.713 51.4522 123.154 45.9347 128.596 40.455L143.676 25.1481C145.51 23.2961 147.343 21.4347 149.176 19.5733C151.009 17.7119 152.842 15.8506 154.675 13.9986C154.929 13.7387 155.182 13.4791 155.434 13.22C159.915 8.61857 164.216 4.20228 170.549 2.05547C179.09 -0.816939 189.144 0.657059 196.627 5.72157C204.791 11.2774 209.024 20.7261 209.213 30.4394C209.288 34.9748 208.079 41.4377 204.526 45.9731C196.929 55.6107 187.783 63.7366 178.486 71.6735C171.153 77.9475 163.783 84.1836 156.376 90.382C155.028 91.4925 153.685 92.6292 152.337 93.7701C148.318 97.1719 144.256 100.61 139.897 103.497C133.812 107.541 126.631 112.152 118.807 115.327C104.71 121.071 87.8535 122.772 74.0206 115.402C73.6965 115.232 73.3797 115.061 73.0679 114.892C70.5436 113.527 68.347 112.34 65.2522 113.248C63.5389 113.725 61.9926 114.599 60.4582 115.467C59.9278 115.766 59.3989 116.065 58.8649 116.347C45.9769 123.301 30.0652 121.071 18.311 112.87C13.6623 109.657 9.8072 105.538 6.21669 99.9819C1.37895 92.4607 0.812028 84.4482 0.623054 76.8892ZM156.376 167.257C163.783 173.417 171.153 179.653 178.486 185.927C187.783 193.864 196.929 202.028 204.526 211.666C208.079 216.201 209.288 222.664 209.213 227.161C209.024 236.875 204.791 246.361 196.627 251.917C189.144 256.944 179.09 258.418 170.549 255.545C164.3 253.462 160.029 249.104 155.612 244.595C155.301 244.277 154.989 243.959 154.675 243.64C152.841 241.769 151.008 239.907 149.175 238.045C147.342 236.184 145.509 234.323 143.676 232.453C141.163 229.901 138.649 227.359 136.135 224.817C133.622 222.275 131.109 219.734 128.596 217.184C125.875 214.425 123.154 211.675 120.433 208.925C117.711 206.176 114.99 203.426 112.269 200.667L112.268 200.666C107.392 195.715 102.517 190.765 97.6046 185.852C95.3649 183.562 93.1084 181.288 90.8575 179.021C89.7278 177.883 88.5996 176.746 87.4756 175.609C86.4929 174.589 85.5102 173.606 84.5276 172.624C82.3355 170.413 80.153 168.183 77.9704 165.953C75.7877 163.723 73.6049 161.493 71.4128 159.282C70.7703 158.602 70.0522 157.921 69.1829 157.581C68.0868 157.165 66.8018 157.392 65.8569 158.073C64.9121 158.791 64.3073 159.849 63.816 160.907C61.2838 166.463 60.1877 173.115 59.4696 179.124C58.2602 189.404 59.0539 211.174 59.0539 211.174C59.0656 211.552 59.0773 211.928 59.0889 212.302C59.2278 216.758 59.3591 220.974 59.394 225.158C59.394 231.017 59.0539 237.82 54.7075 244.094C46.0146 256.49 28.5156 261.101 15.0985 253.202C5.30961 247.457 1.41675 237.366 0.698644 226.557C0.320696 220.925 0.396285 215.294 0.471875 209.814C0.50967 207.584 0.547465 196.472 0.547465 196.472C0.547465 196.472 0.50967 186.041 0.623054 180.749C0.812028 173.19 1.37895 165.178 6.21669 157.657C9.8072 152.101 13.6623 147.981 18.311 144.731C30.0652 136.567 45.9769 134.337 58.8649 141.254C59.3482 141.517 59.8275 141.793 60.3074 142.07C61.8915 142.982 63.4828 143.898 65.2522 144.391C68.4018 145.281 70.621 144.062 73.2021 142.645C73.4705 142.498 73.7429 142.348 74.0206 142.199C87.8535 134.829 104.71 136.567 118.807 142.312C126.631 145.487 133.812 150.06 139.897 154.142C144.409 157.13 148.602 160.686 152.76 164.211C153.966 165.234 155.169 166.254 156.376 167.257Z"
          fill="#FFF"></path>
</svg>