<svg width="33" height="37" viewBox="0 0 33 37" fill="none" xmlns="http://www.w3.org/2000/svg">
<g clip-path="url(#clip0_3739_6930)">
<path d="M0.493218 9.28915L16.3008 0.164246V36.6698L0.493218 27.5429V9.28915Z" fill="white" fill-opacity="0.3" style="mix-blend-mode:screen"/>
<path d="M16.3008 36.6699L0.493218 27.543L16.3008 18.4161L32.1084 27.543L16.3008 36.6699Z" fill="white" fill-opacity="0.3" style="mix-blend-mode:screen"/>
<path d="M16.3008 36.6699L0.493218 27.543L16.3008 18.4161L32.1084 27.543L16.3008 36.6699Z" fill="white" fill-opacity="0.3" style="mix-blend-mode:screen"/>
<path d="M0.493218 9.28915L16.3008 0.164246V36.6698L0.493218 27.5429V9.28915Z" fill="white" fill-opacity="0.3" style="mix-blend-mode:screen"/>
<path d="M16.3008 36.6699L0.493218 27.543L16.3008 18.4161L32.1084 27.543L16.3008 36.6699Z" fill="white" fill-opacity="0.3" style="mix-blend-mode:screen"/>
<path d="M0.493218 9.28915L16.3008 0.164246V36.6698L0.493218 27.5429V9.28915Z" fill="white" fill-opacity="0.3" style="mix-blend-mode:screen"/>
</g>
<defs>
<clipPath id="clip0_3739_6930">
<rect width="31.8983" height="36.683" fill="white" transform="translate(0.351736 0.0744934)"/>
</clipPath>
</defs>
</svg>
